<svg xmlns="http://www.w3.org/2000/svg" viewBox="0 0 64 64" role="img" aria-label="Planora AI">
  <defs>
    <linearGradient id="bg" x1="8" y1="4" x2="56" y2="60" gradientUnits="userSpaceOnUse">
      <stop stop-color="#315f86"/>
      <stop offset="1" stop-color="#17334e"/>
    </linearGradient>
    <linearGradient id="accent" x1="18" y1="14" x2="48" y2="50" gradientUnits="userSpaceOnUse">
      <stop stop-color="#ffe56f"/>
      <stop offset="1" stop-color="#f2c811"/>
    </linearGradient>
    <filter id="shadow" x="-20%" y="-20%" width="140%" height="140%">
      <feDropShadow dx="0" dy="2" stdDeviation="2" flood-color="#07192a" flood-opacity=".35"/>
    </filter>
  </defs>
  <rect x="3" y="3" width="58" height="58" rx="16" fill="url(#bg)"/>
  <path d="M18 48V16h15.2C42.6 16 48 20.6 48 28.2c0 7.7-5.5 12.5-14.9 12.5h-6.5V48H18Zm8.6-14.3h6c4.5 0 6.8-1.8 6.8-5.3 0-3.4-2.3-5.2-6.8-5.2h-6v10.5Z" fill="#fff" filter="url(#shadow)"/>
  <path d="M12 39.5c7 9.3 22.7 14 37.8 5.3" fill="none" stroke="url(#accent)" stroke-width="3.2" stroke-linecap="round"/>
  <circle cx="50.5" cy="43.8" r="3.6" fill="#f2c811"/>
  <path d="m51 10 1.3 3.2 3.2 1.3-3.2 1.3L51 19l-1.3-3.2-3.2-1.3 3.2-1.3L51 10Z" fill="#ffe56f">
    <animateTransform attributeName="transform" type="rotate" values="0 51 14.5;360 51 14.5" dur="5s" repeatCount="indefinite"/>
  </path>
</svg>
